<svg xmlns="http://www.w3.org/2000/svg" xmlns:xlink="http://www.w3.org/1999/xlink" width="288" zoomAndPan="magnify" viewBox="0 0 216 320.250004" height="427" preserveAspectRatio="xMidYMid meet" version="1.0"><defs><clipPath id="d49de17e55"><path d="M 0.253906 0 L 215.746094 0 L 215.746094 319.5 L 0.253906 319.5 Z M 0.253906 0 " clip-rule="nonzero"/></clipPath><clipPath id="cd3df98d34"><path d="M 34.320312 108.882812 L 78 108.882812 L 78 164 L 34.320312 164 Z M 34.320312 108.882812 " clip-rule="nonzero"/></clipPath><clipPath id="3af6822e4f"><path d="M 132 108.882812 L 176 108.882812 L 176 164 L 132 164 Z M 132 108.882812 " clip-rule="nonzero"/></clipPath><clipPath id="9747276ebc"><path d="M 34.320312 172 L 49 172 L 49 191 L 34.320312 191 Z M 34.320312 172 " clip-rule="nonzero"/></clipPath><clipPath id="37f1d27ce5"><path d="M 51.738281 171.746094 L 69.03125 171.746094 L 69.03125 190.863281 L 51.738281 190.863281 Z M 51.738281 171.746094 " clip-rule="nonzero"/></clipPath><clipPath id="dc3b88dce7"><path d="M 106 171.746094 L 123.382812 171.746094 L 123.382812 190.863281 L 106 190.863281 Z M 106 171.746094 " clip-rule="nonzero"/></clipPath><clipPath id="0c9f2547ef"><path d="M 125.855469 172.296875 L 140.953125 172.296875 L 140.953125 190.863281 L 125.855469 190.863281 Z M 125.855469 172.296875 " clip-rule="nonzero"/></clipPath><clipPath id="136ebc214c"><path d="M 38.5625 116.78125 L 69.875 116.78125 L 69.875 121.613281 L 38.5625 121.613281 Z M 81.75 132.046875 L 81.933594 132.046875 L 81.933594 137.136719 L 81.75 137.136719 Z M 56.648438 156.535156 L 81.933594 156.535156 L 81.933594 160.222656 L 56.648438 160.222656 Z M 56.648438 156.535156 " clip-rule="nonzero"/></clipPath><clipPath id="c003c5c0ea"><path d="M 109.882812 121.613281 L 130.246094 121.613281 L 130.246094 125.9375 L 109.882812 125.9375 Z M 87.421875 132.046875 L 130.246094 132.046875 L 130.246094 137.136719 L 87.421875 137.136719 Z M 87.421875 132.046875 " clip-rule="nonzero"/></clipPath><clipPath id="7ca755a923"><path d="M 142.136719 116.78125 L 165.035156 116.78125 L 165.035156 121.613281 L 142.136719 121.613281 Z M 157.976562 137.136719 L 178.011719 137.136719 L 178.011719 139.933594 L 157.976562 139.933594 Z M 137.097656 157.996094 L 179.660156 157.996094 L 179.660156 162.449219 L 137.097656 162.449219 Z M 137.097656 157.996094 " clip-rule="nonzero"/></clipPath><clipPath id="bf170adcf5"><path d="M 47.359375 176.824219 L 52.835938 176.824219 L 52.835938 180.007812 L 47.359375 180.007812 Z M 47.359375 176.824219 " clip-rule="nonzero"/></clipPath><clipPath id="73d0cd26c2"><path d="M 55.582031 176.824219 L 64.28125 176.824219 L 64.28125 180.007812 L 55.582031 180.007812 Z M 55.582031 176.824219 " clip-rule="nonzero"/></clipPath><clipPath id="99f326ddb9"><path d="M 76.746094 185.984375 L 88.246094 185.984375 L 88.246094 188.53125 L 76.746094 188.53125 Z M 76.746094 185.984375 " clip-rule="nonzero"/></clipPath><clipPath id="d0a19355f5"><path d="M 97.03125 185.984375 L 105.625 185.984375 L 105.625 188.53125 L 97.03125 188.53125 Z M 97.03125 185.984375 " clip-rule="nonzero"/></clipPath><clipPath id="7142bbfa19"><path d="M 118.984375 180.007812 L 127 180.007812 L 127 182.675781 L 118.984375 182.675781 Z M 118.984375 180.007812 " clip-rule="nonzero"/></clipPath><clipPath id="32ebbd66df"><path d="M 129.421875 180.007812 L 144.523438 180.007812 L 144.523438 182.675781 L 129.421875 182.675781 Z M 129.421875 180.007812 " clip-rule="nonzero"/></clipPath><clipPath id="675f4d9337"><path d="M 154.222656 189.039062 L 162.914062 189.039062 L 162.914062 190.6875 L 154.222656 190.6875 Z M 154.222656 189.039062 " clip-rule="nonzero"/></clipPath><clipPath id="690673f8b3"><path d="M 174.09375 178.605469 L 181.722656 178.605469 L 181.722656 181.414062 L 174.09375 181.414062 Z M 166.480469 189.039062 L 180.9375 189.039062 L 180.9375 190.6875 L 166.480469 190.6875 Z M 166.480469 189.039062 " clip-rule="nonzero"/></clipPath></defs><g clip-path="url(#d49de17e55)"><path fill="#ffffff" d="M 0.253906 0 L 215.746094 0 L 215.746094 319.5 L 0.253906 319.5 Z M 0.253906 0 " fill-opacity="1" fill-rule="nonzero"/><path fill="#625959" d="M 0.253906 0 L 215.746094 0 L 215.746094 319.5 L 0.253906 319.5 Z M 0.253906 0 " fill-opacity="1" fill-rule="nonzero"/></g><g clip-path="url(#cd3df98d34)"><path fill="#ffffff" d="M 58.753906 163.800781 L 71.59375 163.800781 L 71.59375 160.226562 L 58.726562 160.226562 Z M 71.59375 142.882812 L 71.59375 130.199219 L 60.253906 130.199219 L 58.835938 142.882812 L 48.492188 142.882812 L 58.117188 121.613281 L 45.09375 121.613281 L 34.898438 143.910156 L 34.898438 152.234375 L 58.667969 152.234375 L 58.699219 156.535156 L 71.59375 156.535156 L 71.59375 152.234375 L 77.933594 152.234375 L 77.933594 142.882812 Z M 50.914062 108.886719 L 47.304688 116.777344 L 60.308594 116.777344 L 62.089844 112.847656 L 50.914062 108.886719 " fill-opacity="1" fill-rule="nonzero"/></g><path fill="#ffffff" d="M 125.136719 125.9375 L 112.023438 125.9375 C 112.339844 127.59375 112.558594 129.632812 112.679688 132.042969 L 126.09375 132.042969 C 125.90625 129.859375 125.585938 127.824219 125.136719 125.9375 Z M 120.84375 116.335938 C 117.199219 111.53125 111.929688 109.125 105.039062 109.125 C 98.140625 109.125 92.875 111.53125 89.234375 116.335938 C 86.304688 120.203125 84.550781 125.4375 83.980469 132.042969 L 97.398438 132.042969 C 97.523438 129.617188 97.75 127.574219 98.074219 125.921875 C 98.601562 123.230469 99.421875 121.300781 100.535156 120.140625 C 101.648438 118.976562 103.144531 118.394531 105.039062 118.394531 C 106.929688 118.394531 108.429688 118.949219 109.542969 120.058594 C 109.953125 120.46875 110.320312 120.988281 110.648438 121.613281 L 123.785156 121.613281 C 122.992188 119.636719 122.011719 117.878906 120.84375 116.335938 Z M 112.792969 137.136719 C 112.792969 141.925781 112.53125 145.675781 112 148.390625 C 111.472656 151.109375 110.652344 153.039062 109.542969 154.171875 C 108.429688 155.308594 106.929688 155.878906 105.039062 155.878906 C 103.144531 155.878906 101.648438 155.292969 100.535156 154.132812 C 99.421875 152.972656 98.601562 151.03125 98.074219 148.308594 C 97.542969 145.597656 97.28125 141.871094 97.28125 137.136719 L 83.769531 137.136719 C 83.773438 146.097656 85.59375 153.003906 89.234375 157.859375 C 92.875 162.71875 98.140625 165.148438 105.039062 165.148438 C 111.929688 165.148438 117.199219 162.71875 120.84375 157.859375 C 124.480469 153.003906 126.300781 146.097656 126.304688 137.136719 L 112.792969 137.136719 " fill-opacity="1" fill-rule="nonzero"/><g clip-path="url(#3af6822e4f)"><path fill="#ffffff" d="M 148.652344 108.886719 L 145.046875 116.777344 L 158.054688 116.777344 L 159.832031 112.847656 Z M 156.484375 162.449219 L 156.496094 163.800781 L 169.339844 163.800781 L 169.339844 162.449219 Z M 169.339844 142.882812 L 169.339844 139.933594 L 156.910156 139.933594 L 156.578125 142.882812 L 146.238281 142.882812 L 155.863281 121.613281 L 142.835938 121.613281 L 132.644531 143.910156 L 132.644531 152.234375 L 156.414062 152.234375 L 156.457031 157.996094 L 169.339844 157.996094 L 169.339844 152.234375 L 175.679688 152.234375 L 175.679688 142.882812 Z M 157.996094 130.199219 L 157.222656 137.136719 L 169.339844 137.136719 L 169.339844 130.199219 L 157.996094 130.199219 " fill-opacity="1" fill-rule="nonzero"/></g><g clip-path="url(#9747276ebc)"><path fill="#ffffff" d="M 44.9375 180.007812 C 44.957031 182.011719 45.152344 184.140625 45.535156 186.390625 L 39.925781 172.402344 L 34.34375 172.402344 L 34.34375 190.421875 L 38.339844 190.421875 L 38.339844 183.816406 C 38.339844 182.378906 38.289062 181.136719 38.1875 180.085938 C 38.085938 179.035156 37.945312 177.828125 37.761719 176.460938 L 43.234375 190.421875 L 48.957031 190.421875 L 48.957031 180.007812 Z M 44.933594 172.402344 L 44.933594 176.828125 L 48.957031 176.828125 L 48.957031 172.402344 L 44.933594 172.402344 " fill-opacity="1" fill-rule="nonzero"/></g><g clip-path="url(#37f1d27ce5)"><path fill="#ffffff" d="M 66.757812 174.429688 C 65.253906 172.785156 63.148438 171.960938 60.449219 171.960938 C 58.679688 171.960938 57.152344 172.335938 55.878906 173.089844 C 54.601562 173.847656 53.621094 174.933594 52.9375 176.355469 C 52.859375 176.511719 52.792969 176.667969 52.726562 176.828125 L 57.417969 176.828125 C 57.460938 176.738281 57.511719 176.65625 57.5625 176.574219 C 58.191406 175.578125 59.152344 175.082031 60.449219 175.082031 C 61.746094 175.082031 62.710938 175.574219 63.347656 176.5625 C 63.988281 177.550781 64.304688 179.164062 64.304688 181.398438 C 64.304688 183.632812 63.992188 185.253906 63.363281 186.25 C 62.734375 187.246094 61.765625 187.742188 60.449219 187.742188 C 59.171875 187.742188 58.214844 187.242188 57.574219 186.234375 C 56.9375 185.230469 56.621094 183.617188 56.621094 181.398438 C 56.621094 180.90625 56.636719 180.441406 56.667969 180.007812 L 51.976562 180.007812 C 51.933594 180.457031 51.910156 180.917969 51.910156 181.398438 C 51.910156 183.394531 52.253906 185.097656 52.9375 186.507812 C 53.621094 187.921875 54.601562 189 55.878906 189.746094 C 57.152344 190.488281 58.679688 190.863281 60.449219 190.863281 C 62.21875 190.863281 63.746094 190.488281 65.03125 189.730469 C 66.316406 188.976562 67.300781 187.890625 67.988281 186.472656 C 68.671875 185.046875 69.015625 183.355469 69.015625 181.398438 C 69.015625 178.398438 68.257812 176.078125 66.757812 174.429688 " fill-opacity="1" fill-rule="nonzero"/></g><path fill="#ffffff" d="M 74.816406 188.527344 L 74.816406 190.421875 L 79.304688 190.421875 L 79.304688 188.527344 Z M 69.917969 172.402344 L 69.917969 175.679688 L 74.816406 175.679688 L 74.816406 185.984375 L 79.304688 185.984375 L 79.304688 175.679688 L 83.984375 175.679688 L 84.421875 172.402344 L 69.917969 172.402344 " fill-opacity="1" fill-rule="nonzero"/><path fill="#ffffff" d="M 93.316406 188.527344 L 93.316406 190.421875 L 97.804688 190.421875 L 97.804688 188.527344 Z M 104.148438 175.445312 L 104.617188 172.402344 L 93.316406 172.402344 L 93.316406 185.984375 L 97.804688 185.984375 L 97.804688 183.273438 L 103.328125 183.273438 L 103.328125 180.230469 L 97.804688 180.230469 L 97.804688 175.445312 L 104.148438 175.445312 " fill-opacity="1" fill-rule="nonzero"/><g clip-path="url(#dc3b88dce7)"><path fill="#ffffff" d="M 118.417969 182.675781 C 118.320312 184.265625 118.023438 185.457031 117.519531 186.25 C 116.890625 187.246094 115.914062 187.742188 114.601562 187.742188 C 113.328125 187.742188 112.371094 187.242188 111.730469 186.234375 C 111.09375 185.230469 110.769531 183.617188 110.769531 181.398438 C 110.769531 179.179688 111.085938 177.570312 111.71875 176.574219 C 112.347656 175.578125 113.308594 175.082031 114.601562 175.082031 C 115.902344 175.082031 116.867188 175.574219 117.503906 176.5625 C 118.003906 177.335938 118.304688 178.480469 118.414062 180.007812 L 123.109375 180.007812 C 122.910156 177.671875 122.175781 175.816406 120.910156 174.429688 C 119.410156 172.785156 117.304688 171.960938 114.601562 171.960938 C 112.835938 171.960938 111.308594 172.335938 110.035156 173.089844 C 108.757812 173.847656 107.777344 174.933594 107.09375 176.355469 C 106.410156 177.777344 106.066406 179.457031 106.066406 181.398438 C 106.066406 183.394531 106.410156 185.097656 107.09375 186.507812 C 107.777344 187.921875 108.757812 189 110.035156 189.746094 C 111.308594 190.488281 112.835938 190.863281 114.601562 190.863281 C 116.375 190.863281 117.902344 190.488281 119.1875 189.730469 C 120.472656 188.976562 121.460938 187.890625 122.144531 186.472656 C 122.675781 185.367188 123 184.101562 123.117188 182.675781 L 118.417969 182.675781 " fill-opacity="1" fill-rule="nonzero"/></g><g clip-path="url(#0c9f2547ef)"><path fill="#ffffff" d="M 136.199219 182.675781 L 136.199219 184.257812 C 136.199219 185.421875 135.964844 186.285156 135.5 186.84375 C 135.03125 187.410156 134.289062 187.691406 133.265625 187.691406 C 132.261719 187.691406 131.53125 187.410156 131.0625 186.84375 C 130.597656 186.285156 130.363281 185.421875 130.363281 184.257812 L 130.363281 182.675781 L 125.875 182.675781 L 125.875 184.441406 C 125.875 186.398438 126.507812 187.960938 127.765625 189.121094 C 129.027344 190.28125 130.859375 190.863281 133.265625 190.863281 C 134.871094 190.863281 136.230469 190.585938 137.347656 190.03125 C 138.457031 189.476562 139.292969 188.714844 139.847656 187.742188 C 140.402344 186.773438 140.679688 185.671875 140.679688 184.441406 L 140.679688 182.675781 Z M 136.199219 172.402344 L 136.199219 180.007812 L 140.679688 180.007812 L 140.679688 172.402344 Z M 125.875 172.402344 L 125.875 180.007812 L 130.363281 180.007812 L 130.363281 172.402344 L 125.875 172.402344 " fill-opacity="1" fill-rule="nonzero"/></g><path fill="#ffffff" d="M 154.859375 172.402344 L 154.859375 179.679688 C 154.859375 181.78125 155.058594 184.015625 155.457031 186.390625 L 149.847656 172.402344 L 144.269531 172.402344 L 144.269531 190.421875 L 148.265625 190.421875 L 148.265625 183.816406 C 148.265625 182.378906 148.210938 181.136719 148.113281 180.085938 C 148.011719 179.035156 147.871094 177.828125 147.6875 176.460938 L 152.617188 189.039062 L 158.882812 189.039062 L 158.882812 172.402344 L 154.859375 172.402344 " fill-opacity="1" fill-rule="nonzero"/><path fill="#ffffff" d="M 173.195312 181.414062 C 173.183594 183.617188 172.796875 185.148438 172.046875 186.011719 C 171.277344 186.890625 170.15625 187.324219 168.679688 187.324219 L 167.199219 187.324219 L 167.199219 175.5 L 168.621094 175.5 C 169.589844 175.5 170.398438 175.660156 171.054688 175.980469 C 171.710938 176.300781 172.234375 176.882812 172.617188 177.730469 C 172.734375 177.992188 172.835938 178.28125 172.914062 178.605469 L 177.609375 178.605469 C 177.238281 176.644531 176.417969 175.210938 175.148438 174.316406 C 173.351562 173.042969 170.964844 172.402344 167.992188 172.402344 L 162.714844 172.402344 L 162.714844 189.039062 L 174.230469 189.039062 C 174.578125 188.839844 174.902344 188.621094 175.21875 188.378906 C 176.953125 187.03125 177.832031 184.707031 177.84375 181.414062 L 173.195312 181.414062 " fill-opacity="1" fill-rule="nonzero"/><g clip-path="url(#136ebc214c)"><path fill="#ffffff" d="M 75.410156 152.230469 L 75.410156 163.800781 L 62.566406 163.800781 L 62.484375 152.230469 L 38.714844 152.230469 L 38.714844 143.910156 L 54.726562 108.886719 L 65.902344 112.847656 L 52.308594 142.878906 L 62.652344 142.878906 L 64.070312 130.203125 L 75.410156 130.203125 L 75.410156 142.878906 L 81.75 142.878906 L 81.75 152.230469 L 75.410156 152.230469 " fill-opacity="1" fill-rule="nonzero"/></g><g clip-path="url(#c003c5c0ea)"><path fill="#ffffff" d="M 104.351562 120.140625 C 103.238281 121.300781 102.417969 123.230469 101.890625 125.921875 C 101.363281 128.617188 101.097656 132.34375 101.097656 137.097656 C 101.097656 141.851562 101.363281 145.589844 101.890625 148.308594 C 102.417969 151.03125 103.238281 152.972656 104.351562 154.132812 C 105.460938 155.296875 106.964844 155.875 108.855469 155.875 C 110.742188 155.875 112.246094 155.308594 113.359375 154.171875 C 114.46875 153.039062 115.289062 151.109375 115.816406 148.386719 C 116.347656 145.667969 116.609375 141.902344 116.609375 137.097656 C 116.609375 132.289062 116.347656 128.527344 115.816406 125.804688 C 115.289062 123.085938 114.46875 121.167969 113.359375 120.058594 C 112.246094 118.949219 110.742188 118.394531 108.855469 118.394531 C 106.964844 118.394531 105.460938 118.976562 104.351562 120.140625 Z M 124.660156 116.335938 C 128.300781 121.144531 130.121094 128.0625 130.121094 137.097656 C 130.121094 146.078125 128.300781 152.996094 124.660156 157.859375 C 121.015625 162.71875 115.746094 165.148438 108.855469 165.148438 C 101.960938 165.148438 96.691406 162.71875 93.050781 157.859375 C 89.40625 152.996094 87.585938 146.078125 87.585938 137.097656 C 87.585938 128.0625 89.40625 121.144531 93.050781 116.335938 C 96.691406 111.527344 101.960938 109.125 108.855469 109.125 C 115.746094 109.125 121.015625 111.527344 124.660156 116.335938 " fill-opacity="1" fill-rule="nonzero"/></g><g clip-path="url(#7ca755a923)"><path fill="#ffffff" d="M 173.15625 152.230469 L 173.15625 163.800781 L 160.3125 163.800781 L 160.230469 152.230469 L 136.457031 152.230469 L 136.457031 143.910156 L 152.472656 108.886719 L 163.648438 112.847656 L 150.054688 142.878906 L 160.394531 142.878906 L 161.8125 130.203125 L 173.15625 130.203125 L 173.15625 142.878906 L 179.492188 142.878906 L 179.492188 152.230469 L 173.15625 152.230469 " fill-opacity="1" fill-rule="nonzero"/></g><g clip-path="url(#bf170adcf5)"><path fill="#ffffff" d="M 47.054688 190.421875 L 41.578125 176.457031 C 41.761719 177.828125 41.902344 179.039062 42.003906 180.085938 C 42.105469 181.136719 42.15625 182.378906 42.15625 183.816406 L 42.15625 190.421875 L 38.160156 190.421875 L 38.160156 172.402344 L 43.742188 172.402344 L 49.351562 186.390625 C 48.949219 184.015625 48.75 181.78125 48.75 179.683594 L 48.75 172.402344 L 52.773438 172.402344 L 52.773438 190.421875 L 47.054688 190.421875 " fill-opacity="1" fill-rule="nonzero"/></g><g clip-path="url(#73d0cd26c2)"><path fill="#ffffff" d="M 61.378906 176.574219 C 60.75 177.574219 60.433594 179.179688 60.433594 181.398438 C 60.433594 183.617188 60.753906 185.230469 61.390625 186.234375 C 62.03125 187.242188 62.988281 187.742188 64.265625 187.742188 C 65.578125 187.742188 66.550781 187.246094 67.179688 186.246094 C 67.808594 185.25 68.125 183.632812 68.125 181.398438 C 68.125 179.164062 67.804688 177.550781 67.164062 176.5625 C 66.527344 175.574219 65.5625 175.082031 64.265625 175.082031 C 62.96875 175.082031 62.007812 175.578125 61.378906 176.574219 Z M 70.574219 174.429688 C 72.078125 176.078125 72.832031 178.402344 72.832031 181.398438 C 72.832031 183.359375 72.488281 185.046875 71.804688 186.46875 C 71.121094 187.890625 70.136719 188.976562 68.847656 189.730469 C 67.5625 190.488281 66.035156 190.863281 64.265625 190.863281 C 62.496094 190.863281 60.972656 190.488281 59.695312 189.746094 C 58.417969 189 57.4375 187.921875 56.753906 186.507812 C 56.070312 185.09375 55.726562 183.394531 55.726562 181.398438 C 55.726562 179.457031 56.070312 177.777344 56.753906 176.355469 C 57.4375 174.933594 58.417969 173.84375 59.695312 173.089844 C 60.972656 172.335938 62.496094 171.960938 64.265625 171.960938 C 66.964844 171.960938 69.066406 172.785156 70.574219 174.429688 " fill-opacity="1" fill-rule="nonzero"/></g><g clip-path="url(#99f326ddb9)"><path fill="#ffffff" d="M 83.121094 175.679688 L 83.121094 190.421875 L 78.632812 190.421875 L 78.632812 175.679688 L 73.734375 175.679688 L 73.734375 172.402344 L 88.238281 172.402344 L 87.800781 175.679688 L 83.121094 175.679688 " fill-opacity="1" fill-rule="nonzero"/></g><g clip-path="url(#d0a19355f5)"><path fill="#ffffff" d="M 101.617188 175.445312 L 101.617188 180.230469 L 107.148438 180.230469 L 107.148438 183.269531 L 101.617188 183.269531 L 101.617188 190.421875 L 97.128906 190.421875 L 97.128906 172.402344 L 108.433594 172.402344 L 107.96875 175.445312 L 101.617188 175.445312 " fill-opacity="1" fill-rule="nonzero"/></g><g clip-path="url(#7142bbfa19)"><path fill="#ffffff" d="M 115.53125 176.574219 C 114.902344 177.574219 114.589844 179.179688 114.589844 181.398438 C 114.589844 183.617188 114.90625 185.230469 115.546875 186.234375 C 116.1875 187.242188 117.144531 187.742188 118.421875 187.742188 C 119.734375 187.742188 120.707031 187.246094 121.335938 186.246094 C 121.964844 185.25 122.28125 183.632812 122.28125 181.398438 C 122.28125 179.164062 121.960938 177.550781 121.320312 176.5625 C 120.683594 175.574219 119.714844 175.082031 118.421875 175.082031 C 117.125 175.082031 116.164062 175.578125 115.53125 176.574219 Z M 124.726562 174.429688 C 126.234375 176.078125 126.984375 178.402344 126.984375 181.398438 C 126.984375 183.359375 126.644531 185.046875 125.960938 186.46875 C 125.277344 187.890625 124.289062 188.976562 123.003906 189.730469 C 121.71875 190.488281 120.191406 190.863281 118.421875 190.863281 C 116.652344 190.863281 115.128906 190.488281 113.851562 189.746094 C 112.574219 189 111.59375 187.921875 110.910156 186.507812 C 110.226562 185.09375 109.882812 183.394531 109.882812 181.398438 C 109.882812 179.457031 110.226562 177.777344 110.910156 176.355469 C 111.59375 174.933594 112.574219 173.84375 113.851562 173.089844 C 115.128906 172.335938 116.652344 171.960938 118.421875 171.960938 C 121.121094 171.960938 123.222656 172.785156 124.726562 174.429688 " fill-opacity="1" fill-rule="nonzero"/></g><g clip-path="url(#32ebbd66df)"><path fill="#ffffff" d="M 143.664062 187.742188 C 143.109375 188.714844 142.273438 189.476562 141.160156 190.03125 C 140.046875 190.585938 138.6875 190.863281 137.085938 190.863281 C 134.675781 190.863281 132.84375 190.28125 131.582031 189.121094 C 130.324219 187.960938 129.695312 186.398438 129.695312 184.441406 L 129.695312 172.402344 L 134.183594 172.402344 L 134.183594 184.257812 C 134.183594 185.417969 134.414062 186.28125 134.878906 186.847656 C 135.347656 187.410156 136.078125 187.691406 137.085938 187.691406 C 138.105469 187.691406 138.847656 187.410156 139.3125 186.847656 C 139.777344 186.28125 140.011719 185.417969 140.011719 184.257812 L 140.011719 172.402344 L 144.5 172.402344 L 144.5 184.441406 C 144.5 185.671875 144.222656 186.773438 143.664062 187.742188 " fill-opacity="1" fill-rule="nonzero"/></g><g clip-path="url(#675f4d9337)"><path fill="#ffffff" d="M 156.976562 190.421875 L 151.503906 176.457031 C 151.6875 177.828125 151.828125 179.039062 151.929688 180.085938 C 152.03125 181.136719 152.078125 182.378906 152.078125 183.816406 L 152.078125 190.421875 L 148.085938 190.421875 L 148.085938 172.402344 L 153.667969 172.402344 L 159.277344 186.390625 C 158.875 184.015625 158.675781 181.78125 158.675781 179.683594 L 158.675781 172.402344 L 162.699219 172.402344 L 162.699219 190.421875 L 156.976562 190.421875 " fill-opacity="1" fill-rule="nonzero"/></g><g clip-path="url(#690673f8b3)"><path fill="#ffffff" d="M 171.015625 187.328125 L 172.492188 187.328125 C 173.972656 187.328125 175.09375 186.890625 175.859375 186.015625 C 176.625 185.140625 177.007812 183.574219 177.007812 181.320312 C 177.007812 179.777344 176.816406 178.582031 176.433594 177.734375 C 176.050781 176.882812 175.53125 176.300781 174.875 175.976562 C 174.21875 175.65625 173.40625 175.496094 172.4375 175.496094 L 171.015625 175.496094 Z M 178.964844 174.3125 C 180.761719 175.585938 181.660156 177.921875 181.660156 181.320312 C 181.660156 184.667969 180.785156 187.019531 179.035156 188.378906 C 177.28125 189.738281 175.011719 190.421875 172.21875 190.421875 L 166.527344 190.421875 L 166.527344 172.402344 L 171.808594 172.402344 C 174.78125 172.402344 177.167969 173.039062 178.964844 174.3125 " fill-opacity="1" fill-rule="nonzero"/></g></svg>