<svg width="545" height="196" viewBox="0 0 545 196" fill="none" xmlns="http://www.w3.org/2000/svg">
<g filter="url(#filter0_d_44_30)">
<path d="M144.574 141.844C141.055 146.261 136.713 150.117 131.547 153.411C126.381 156.705 120.84 159.438 114.926 161.609C109.011 163.781 102.947 165.428 96.7324 166.551C90.5182 167.599 84.6035 168.123 78.9883 168.123C68.1322 168.123 58.137 166.289 49.0029 162.62C39.8688 158.951 31.9701 153.86 25.3066 147.347C18.7181 140.758 13.5521 132.934 9.80859 123.875C6.0651 114.816 4.19336 104.933 4.19336 94.2266C4.19336 86.0658 5.12923 78.1296 7.00098 70.418C8.87272 62.7064 11.5306 55.4814 14.9746 48.7432C18.4935 42.0049 22.7611 35.8281 27.7773 30.2129C32.7936 24.5977 38.4837 19.7686 44.8477 15.7256C51.2116 11.6826 58.1745 8.57552 65.7363 6.4043C73.373 4.1582 81.459 3.03516 89.9941 3.03516C93.2135 3.03516 96.6576 3.1849 100.326 3.48438C103.995 3.70898 107.626 4.1582 111.22 4.83203C114.888 5.43099 118.445 6.29199 121.889 7.41504C125.333 8.53809 128.477 9.92318 131.322 11.5703L128.178 54.4707C123.985 52.8984 119.643 51.8503 115.15 51.3262C110.733 50.7272 106.391 50.4277 102.123 50.4277C96.1335 50.4277 90.5182 51.2513 85.2773 52.8984C80.1113 54.4707 75.5817 56.8291 71.6885 59.9736C67.8701 63.1182 64.8379 67.0488 62.5918 71.7656C60.3457 76.4824 59.2227 81.9479 59.2227 88.1621C59.2227 92.0553 59.7467 95.8363 60.7949 99.5049C61.8431 103.099 63.4154 106.318 65.5117 109.163C67.6829 111.933 70.3408 114.179 73.4854 115.901C76.7048 117.623 80.4108 118.484 84.6035 118.484C87.4486 118.484 90.3685 118.11 93.3633 117.361C96.4329 116.613 99.0534 115.34 101.225 113.543L101.674 104.783L74.7207 104.334L76.0684 70.6426C87.224 70.2682 98.3796 69.9688 109.535 69.7441C120.691 69.4447 131.921 69.0703 143.227 68.6211L144.574 141.844ZM292.03 80.9746C292.03 87.7878 291.244 94.3763 289.672 100.74C288.1 107.029 285.816 112.944 282.821 118.484C279.901 124.025 276.308 129.116 272.04 133.758C267.847 138.325 263.093 142.256 257.777 145.55C252.536 148.844 246.809 151.427 240.595 153.299C234.381 155.096 227.792 155.994 220.829 155.994C214.091 155.994 207.652 155.133 201.513 153.411C195.448 151.689 189.758 149.293 184.442 146.224C179.127 143.079 174.298 139.336 169.955 134.993C165.688 130.576 162.019 125.709 158.949 120.394C155.954 115.003 153.596 109.238 151.874 103.099C150.227 96.9593 149.403 90.5579 149.403 83.8945C149.403 77.3809 150.189 71.0169 151.762 64.8027C153.334 58.5137 155.58 52.599 158.5 47.0586C161.495 41.5182 165.089 36.4271 169.281 31.7852C173.474 27.1432 178.153 23.1377 183.319 19.7686C188.56 16.3994 194.213 13.779 200.277 11.9072C206.342 10.0355 212.743 9.09961 219.481 9.09961C230.338 9.09961 240.22 10.7842 249.13 14.1533C258.114 17.5225 265.751 22.3516 272.04 28.6406C278.404 34.8548 283.308 42.4167 286.752 51.3262C290.271 60.1608 292.03 70.0436 292.03 80.9746ZM242.167 83.8945C242.167 80.6751 241.68 77.568 240.707 74.5732C239.809 71.5036 238.461 68.8083 236.664 66.4873C234.867 64.0915 232.621 62.1823 229.926 60.7598C227.305 59.2624 224.273 58.5137 220.829 58.5137C217.31 58.5137 214.166 59.1501 211.396 60.4229C208.625 61.6956 206.229 63.4551 204.208 65.7012C202.261 67.8724 200.764 70.4554 199.716 73.4502C198.668 76.3701 198.144 79.4772 198.144 82.7715C198.144 85.916 198.593 89.0605 199.491 92.2051C200.39 95.3496 201.737 98.1947 203.534 100.74C205.331 103.286 207.54 105.345 210.16 106.917C212.855 108.489 215.963 109.275 219.481 109.275C223 109.275 226.145 108.602 228.915 107.254C231.76 105.831 234.156 103.96 236.103 101.639C238.049 99.2428 239.547 96.5101 240.595 93.4404C241.643 90.3708 242.167 87.1888 242.167 83.8945ZM433.759 8.875C430.39 35.2292 427.507 61.471 425.111 87.6006C422.715 113.655 420.432 139.897 418.261 166.326L372.216 169.695L374.237 152.4C372.74 154.122 370.98 155.62 368.959 156.893C367.012 158.165 364.916 159.214 362.67 160.037C360.424 160.786 358.103 161.347 355.707 161.722C353.311 162.021 351.028 162.133 348.856 162.059C343.765 161.984 338.974 161.01 334.481 159.139C329.989 157.192 325.871 154.646 322.128 151.502C318.384 148.283 315.015 144.576 312.021 140.384C309.026 136.116 306.48 131.661 304.384 127.02C302.362 122.303 300.79 117.511 299.667 112.645C298.619 107.778 298.095 103.061 298.095 98.4941C298.095 91.7559 298.207 84.793 298.432 77.6055C298.731 70.3431 299.218 63.0807 299.892 55.8184C300.565 48.556 301.426 41.3685 302.475 34.2559C303.598 27.1432 304.983 20.3301 306.63 13.8164C315.764 14.2656 324.936 14.6774 334.145 15.0518C343.354 15.4261 352.525 15.5384 361.659 15.3887C359.937 21.9023 358.215 28.4535 356.493 35.042C354.846 41.5557 353.349 48.1442 352.001 54.8076C350.653 61.3962 349.568 68.0221 348.744 74.6855C347.921 81.349 347.509 88.0872 347.509 94.9004C347.509 96.4727 347.584 98.7188 347.733 101.639C347.883 104.559 348.257 107.441 348.856 110.286C349.53 113.131 350.504 115.639 351.776 117.811C353.124 119.907 354.996 120.955 357.392 120.955C360.237 120.955 362.782 119.757 365.028 117.361C367.274 114.891 369.258 111.596 370.98 107.479C372.702 103.361 374.162 98.6064 375.36 93.2158C376.633 87.8252 377.681 82.21 378.505 76.3701C379.403 70.4554 380.115 64.5033 380.639 58.5137C381.163 52.5241 381.537 46.9089 381.762 41.668C382.061 36.3522 382.248 31.598 382.323 27.4053C382.473 23.2126 382.548 19.9557 382.548 17.6348C382.548 16.1374 382.51 14.6774 382.436 13.2549C382.361 11.8324 382.248 10.3724 382.099 8.875C386.965 9.02474 391.794 9.13704 396.586 9.21191C401.378 9.28678 406.207 9.32422 411.073 9.32422C414.817 9.32422 418.56 9.32422 422.304 9.32422C426.122 9.24935 429.94 9.09961 433.759 8.875ZM540.448 0.115234L531.239 118.26H489.687L485.419 0.115234H540.448ZM533.036 152.85C533.036 156.144 532.4 159.214 531.127 162.059C529.854 164.904 528.132 167.374 525.961 169.471C523.865 171.642 521.394 173.326 518.549 174.524C515.704 175.797 512.672 176.434 509.452 176.434C506.158 176.434 503.088 175.797 500.243 174.524C497.398 173.326 494.89 171.642 492.719 169.471C490.622 167.374 488.938 164.904 487.665 162.059C486.467 159.214 485.868 156.144 485.868 152.85C485.868 149.63 486.467 146.561 487.665 143.641C488.938 140.721 490.622 138.213 492.719 136.116C494.89 133.945 497.398 132.223 500.243 130.95C503.088 129.677 506.158 129.041 509.452 129.041C512.672 129.041 515.704 129.677 518.549 130.95C521.394 132.223 523.865 133.945 525.961 136.116C528.132 138.213 529.854 140.721 531.127 143.641C532.4 146.561 533.036 149.63 533.036 152.85Z" fill="#03A678"/>
</g>
<defs>
<filter id="filter0_d_44_30" x="0.193359" y="0.115234" width="544.255" height="195.318" filterUnits="userSpaceOnUse" color-interpolation-filters="sRGB">
<feFlood flood-opacity="0" result="BackgroundImageFix"/>
<feColorMatrix in="SourceAlpha" type="matrix" values="0 0 0 0 0 0 0 0 0 0 0 0 0 0 0 0 0 0 127 0" result="hardAlpha"/>
<feOffset dy="15"/>
<feGaussianBlur stdDeviation="2"/>
<feComposite in2="hardAlpha" operator="out"/>
<feColorMatrix type="matrix" values="0 0 0 0 0.175694 0 0 0 0 0.183333 0 0 0 0 0.181178 0 0 0 1 0"/>
<feBlend mode="normal" in2="BackgroundImageFix" result="effect1_dropShadow_44_30"/>
<feBlend mode="normal" in="SourceGraphic" in2="effect1_dropShadow_44_30" result="shape"/>
</filter>
</defs>
</svg>
